<?xml version="1.0" encoding="UTF-8"?>
<svg id="Layer_2" data-name="Layer 2" xmlns="http://www.w3.org/2000/svg" viewBox="0 0 716.33 767.27">
  <defs>
    <style>
      .cls-1 {
        fill: #184327;
      }

      .cls-1, .cls-2, .cls-3, .cls-4, .cls-5 {
        stroke-width: 0px;
      }

      .cls-2 {
        fill: #f7941d;
      }

      .cls-3 {
        fill: #129c4a;
      }

      .cls-4 {
        fill: #cf4b2f;
      }

      .cls-5 {
        fill: #695236;
      }
    </style>
  </defs>
  <g id="Layer_72" data-name="Layer 72">
    <path class="cls-3" d="M380.03,0c5.54,11.13,12.86,21.21,18.96,32.04,13.53,24.04,24.68,48.6,26.44,76.81.83,13.31-.95,26.14-3.17,39-.64,3.71-.02,5.91,2.37,8.31,5.82,5.89,11.95,11.43,16.75,18.34,6.75,9.71,10.09,20.46,10.75,32.03.48,8.45.35,16.95-.32,25.43-.62,7.81,2.07,13.96,8.48,18.97,10.31,8.07,20.48,16.41,28.67,26.77,14.66,18.51,22.43,39.27,17.34,62.93-3.76,17.5-13.76,31.49-27.98,42.69-11.27,8.87-23.95,14.96-37.06,20.11-9.21,3.61-19.04,5.48-28.88,7.12-8.62,1.43-17.09,3.71-25.62,5.67-2.1.48-4.13,1.1-3.98-2.23.26-6.06-1.22-11.88-2.55-17.68-3.09-13.48,6.66-22.08,16.16-26.81,9.55-4.75,19.83-7.19,29.64-11.07,7.14-2.82,11.38-8.38,14.56-14.97,7.36-15.24,12.09-31.13,12.13-48.25.01-5.17-3.06-7.27-7.15-8.1-15.79-3.19-29.35,3.19-33.18,20.23-.55,2.43-1.09,4.86-1.63,7.3-2.13,9.65-11.95,15.22-21.69,12.7-2.42-.62-2.84-1.55-2.76-3.67.57-14.95,1.06-29.9,1.6-44.86.04-.99.46-2.05.24-2.96-2.6-11.08,5.36-17.29,11.48-23.99,12.31-13.46,23.3-27.57,27.03-45.98,2.03-10.03-.03-19.45-4.9-28.32-.35-.64-1.22-1.01-3.02-2.43,1,27.69-13.84,46.9-30.21,65.36-.56-.09-1.12-.18-1.68-.27,0-7.73.02-15.46,0-23.2-.06-23.74-3.37-47.23-5.8-70.77-.45-4.37,1.45-7.17,3.91-9.63,6.3-6.28,9.17-14.06,11.1-22.41,1.92-8.3,2.44-16.59-.14-25.56-5.25,13.13-10.32,25.81-21.11,36.04-7.36-26.67-11.78-53.42-13.9-80.61-7.02,20.94-8.65,42.54-10.37,64.2-.82,10.26-7.07,42.31-8.78,48.22-.22.78-.08,1.66-.12,2.49-.04,1.2-.18,2.52-1.6,2.7-1.26.16-2.15-.83-2.65-1.91-1.57-3.47-3.14-6.94-4.58-10.47-6.19-15.14-10.61-30.74-12.34-47.07-.47-4.4-1.56-8.73-2.64-14.58-3.05,8.48-4.32,15.88-5.13,23.25-1.43,13.01.34,25.76,4.67,38.16,1.47,4.22,2.62,8.58,3.57,12.95,2.45,11.31,8.36,21.29,12.14,32.08,3.72,10.61,6.68,21.13,6.02,32.84-1.01,17.91-.2,35.92-1.54,53.85-.37,4.93-1.11,9.82-1.7,14.94-3.14-.59-3.48-3.4-4.65-5.4-6.31-10.77-7.76-22.69-8.47-34.88-.73-12.48-.23-24.94-.23-37.41,0-6.23-13.73-6.96-16.27-5.79-3.92,1.8-10.69,6.19-10.97,6.75-5.96,11.99-9.46,24.37-8.81,38.08,1.07,22.62,6.68,43.84,16.97,63.92,1.55,3.03,2.78,6.23,4.39,9.87-4.78-.58-7.72-3.56-11.04-5.41-10.02-5.58-17.95-13.5-23.38-23.74-4.46-8.43-10.51-15.53-18.19-21.98-.72,5.05,1.02,9.27,1.48,13.62,1.5,14.31,7.24,26.97,16.54,37.59,5.73,6.54,13.34,11.44,21.65,14.66,8.32,3.23,16.41,6.99,25.21,9.01,8.28,1.9,8.92,9.74,10.14,16.17,2.84,14.99,1.55,30.11.09,45.18-.35,3.57-1.52,4.9-5.47,3.39-7.76-2.96-16.28-2.35-24.3-4.87-7.59-2.38-15.27-4.58-22.62-7.55-12.59-5.09-25.21-10.36-36.08-18.7-6.93-5.31-13-11.55-18.57-18.44-12.23-15.11-16.49-32.5-14.23-51.07,2.08-17.14,8.97-32.75,21.43-45.38,8.98-9.11,18.66-17.43,28.61-25.44,3.63-2.92,5.41-5.63,4.92-10.79-1.09-11.55-2.25-23.24-.49-34.8,1.75-11.48,6.03-21.97,14.19-30.67,4.16-4.43,6.35-10.44,11.54-14.24,1.64-1.2.31-4.14-.32-6.14-5.88-18.76-4.72-37.31.12-56.19,4.36-17.01,11.66-32.56,21.33-46.86,6.69-9.9,14.56-19.06,23.12-27.64,7.02-7.05,14.53-13.54,21.55-20.56h24.97Z"/>
    <path class="cls-2" d="M646.6,517.2c11.15-14.46,19.95-29.52,21.33-46.6-11.62,18.72-24.14,36.98-43.2,52.23-18.74,15-39.74,28.01-62.26,40.11,1.78-6.7,3.56-13.39,5.55-20.86-5.89,3.71-10.45,6.65-12.72,12.16-3.38,8.22-7.59,16.16-19.02,21.31-18.73,8.43-36.62,17.99-54.23,27.7-10.82,5.97-21.83,11.76-32.64,17.74-10.35,5.72-21.29,10.84-32.83,16.66,8.8-19.01,24.69-34.36,38.66-51.72-10.59,3.74-17.24,9.21-24.12,14.57-10.55,8.22-18.45,17.88-25.32,27.82-6.41,9.28-13.2,18.4-20.13,27.44-4,5.23-9.05,10.11-15.34,14.17-3.31,2.14-4.2.92-5.11-1.24-3.85-9.2-5.47-18.7-4.84-28.26.74-11.28,1.29-22.73,6.81-33.39,8.51-16.47,20.24-31.01,41.08-40.96,18.55-8.86,38.73-14.09,59.46-18.75,21.23-4.78,42.2-10.11,62.4-17.06,12.86-4.43,25.85-8.6,37.66-14.56,9-4.54,17.53-9.45,25.83-14.73,11.83-7.52,20.8-16.69,30.16-25.7,5.34-5.14,8.12-11.29,11.06-17.3,11.75-24.03,15.35-48.94,12.71-74.32-1.81-17.43-7.29-34.36-15.09-50.85-.64-1.35-1.83-2.61-.86-4.41,8.61,6.43,16.51,13.07,23.91,20.07,10.2,9.64,18.82,20.09,26.19,31.01,6.92,10.25,13.1,20.79,18.55,31.6,5.91,11.71,9.45,23.76,12.13,35.96,2.12,9.64,4.47,19.51,3.9,29.18-1.3,21.81-.76,43.86-8.62,65.18-5.71,15.47-12.14,30.74-20.95,45.47-8.49,14.19-17.98,27.92-28.82,41.16-18.71,22.85-41.35,43.24-67.67,61.39-11.6,8-23.68,15.56-36.3,22.61-10.63,5.93-21.64,11.42-33.04,16.53-27.23,12.2-55.73,22.32-85.97,29.4-20.97,4.91-42.53,7.79-64.61,9.08-16.76.98-32.98-1.55-49.49-1.94-10.88-.26-21.04-3.53-31.49-5.55-22.8-4.41-44.11-11.47-64.98-19.48-17.62-6.76-34.56-14.36-50.81-22.78-12.95-6.71-25.51-13.82-37.04-21.94-7.4-5.22-15.5-9.88-22.52-15.44-15.62-12.36-30.71-25.02-43.45-39.21-5.76-6.42-10.98-13.1-16.96-19.42,2.08-.82,3.43.51,4.88,1.09,18.63,7.35,36.85,15.27,56.06,21.79,13.25,4.49,26.53,9,40.47,12.11,9.55,2.13,19.4,3.52,29.12,5.22,8.65,1.51,17.27,3.19,25.99,4.42,10.7,1.51,21.52,2.44,31.79,5.48,16.49,4.89,33.6,7.72,51.41,8.32,8.44.29,16.83,1.43,25.24,2.19-8.2,2.27-16.64,3.75-25.35,4.27-9.78.59-19.58,1.48-29.36,1.42-18.12-.11-36.38.13-53.86-4.49-7.77-2.05-15.5-4.23-24.18-4.5,7.76,6.33,17.04,10.6,27.01,13.76,14.5,4.6,29.89,6.47,45.63,6.3,14.71-.16,29.33-1.19,43.74-3.53,12.27-1.99,45.79-5.73,48.02-5.67v25.68c2.27-3.07,3.48-5.14,3.87-7.4,1.38-8.04,8.17-13.32,16.06-18.13,3.05-1.86,5.8-.4,8.13.4,15.29,5.26,31.82,7.15,48.11,8.39,24.21,1.84,48.69,2.34,72.39-3.73,10.67-2.73,19.99-7.04,28.23-12.76,1.63-1.13,2.89-2.4,3.7-3.92-48.26,12.82-96.57,11.44-146.27,1.34,13.43-11.87,28.21-20.7,42.76-29.68,13.32-8.22,28.36-14.59,42.66-21.75,1.08-.54,1.8-.27,2.92,0,22.1,5.24,43.8,11.61,66.62,14.86,14.75,2.1,28.68.1,39.49-8.75.93-.76,2.44-1.3,2.11-2.82-4.03-.66-7.73.88-11.61,1.19-14.39,1.14-28.03-1.53-41.7-4.17-14.14-2.73-27.71-6.96-42.46-8.7,14.6-9.02,30.42-16.22,45.75-23.94,2.11-1.06,4.23-2.19,6.01-3.53,13.33-10.05,28.4-5.27,43.26-3.04,4.6.69,9.34.91,14.03,1.22,13.57.9,26.85-.88,39.92-3.14,5.45-.94,10.89-2.76,16.07-5.49-2.83-1.3-5.27-1.89-8.02-1.68-16.02,1.23-32.11.7-48.02-.42-9.46-.66-19.08-1.13-29.14-2.41,3.04-3.11,7.07-4.39,10.67-6,10.64-4.77,19.6-11,28.62-17.29,7.83-5.46,15.91-10.69,23.34-16.48,3.17-2.47,6.28-4.88,8.36-7.91,1.33-1.94,3.1-2.89,6.05-2.67,10.98.8,20.16-2.42,28.88-7.02,10.68-5.63,20.01-12.16,26.35-21.04-16.2,7.46-32.86,14.14-50.42,19.49-.08-.33-.16-.66-.25-1Z"/>
    <path class="cls-4" d="M318.48,681.9c-8.41-.76-16.8-1.9-25.24-2.19-17.81-.6-34.91-3.43-51.41-8.32-10.27-3.04-21.09-3.97-31.79-5.48-8.72-1.23-17.34-2.91-25.99-4.42-9.72-1.7-19.57-3.08-29.12-5.22-13.95-3.12-27.22-7.62-40.47-12.11-19.21-6.51-37.43-14.43-56.06-21.79-1.45-.57-2.8-1.91-4.88-1.09-13.45-15.8-23.91-32.68-32.62-50.2-6.87-13.8-12.64-27.89-15.71-42.43-4.76-22.55-6.92-45.25-3.56-68.06,4.02-27.31,13.93-53.24,30.78-77.8,7.76-11.31,16.48-22.12,26.28-32.36,7.97-8.32,16.38-16.6,27.05-23.28.28.2.57.4.85.6-12.84,26.38-20,53.47-18.05,81.67.91,13.2,3.35,26.15,8.25,38.97,7.77,20.33,22.91,36.82,43.36,50.93,18.26,12.6,39.26,21.79,61.82,29.49,18.29,6.25,37.02,11.44,56.18,15.68,17.12,3.8,34.18,7.55,50.43,13.14,24.73,8.51,43.37,21.4,53.95,40.63,6.3,11.45,8.28,23.25,9.17,35.44.89,12.28,1.03,24.53.41,36.8-.07,1.35-.77,9.71-1.69,13.25-.14.51-.28,1.02-.43,1.53-2.21-.22-3.64-1.37-5.38-2.25-2.26-1.14-20.18-3.28-26.13-1.16ZM68.35,516.69c-19.3-1.67-33.44-10.69-48.37-19.8,3.46,8.72,10.98,14.42,18.78,19.59,9.9,6.56,21.85,10.23,35.39,10.25,1.73,0,3.17.28,4.31,1.38,7.62,7.27,16.18,13.86,25.12,20.23,8.58,6.12,17.9,11.53,27.2,16.97,6.61,3.87,14.28,6.7,20.23,11.07-29.03,4.43-58.08,4.72-87.3,2.36,4.32,2.64,8.67,4.72,13.66,6.11,23.62,6.59,47.66,7.67,71.74,2.22,10.07-2.28,18.09-2.66,26.88,2.92,9.78,6.21,21.21,10.96,31.91,16.36,7.94,4,15.86,8.03,23.95,12.12-.71.48-1.05.9-1.5.98-25.16,4.68-49.49,12.06-75.78,13.07-7.32.28-14.28,1.66-22.09,4.16,4.1.98,6.98,1.69,9.89,2.36,13.71,3.13,27.53,4.42,41.86,2.5,14.25-1.91,27.59-5.93,41.19-9.33,12.49-3.12,24.82-5.67,36.41,1.72,1.94,1.23,4.01,2.39,6.18,3.37,10.14,4.58,18.4,11.08,28.52,15.69,3.08,1.41,6.51,2.89,8.53,5.01,7.29,7.64,18.27,10.16,29.28,13.16,2-19.18-48.03-78.99-74.71-85.61,13.85,16.92,29.5,32.93,38.97,51.51-19.06-9.33-37.34-19.2-55.56-29.09-21.63-11.74-44.26-22.37-65.75-34.26-5.94-3.28-9.76-7.1-12.41-12-3.68-6.8-6.72-13.84-12.77-19.78-.98-.96-1.35-3.15-3.67-2.22-1.86.75-.62,2.56-.13,3.76,2.43,5.85,5.07,11.66,7.63,17.48-.34.23-.67.47-1.01.7-7.48-3.76-15.08-7.4-22.41-11.31-10.95-5.86-19.86-13.43-29.72-20.19-15.91-10.9-28.64-23.38-38.53-37.63-5.4-7.78-11.08-15.45-15.87-23.56-.6,5,.05,9.88,2.07,14.62,4.8,11.28,10.15,22.4,18.58,32.53-.26.18-.5.37-.71.59Z"/>
    <path class="cls-1" d="M565.34,272.61c8.36,15.68,15.59,30.63,24.68,44.73,5.73,8.89,12.02,17.33,18.23,25.81,4.93,6.73,10.22,13.36,16.47,19.07,3.39,3.09,1.74,9.13-2.87,10.84-14.82,5.51-27.93,1.75-40.03-7.44-.77-.58-1.21-1.65-2.92-1.51,1.18,3.3,2.07,6.63,3.52,9.68,6.64,13.97,15.3,26.72,24.13,39.37.38.54.85,1.03,1.34,1.47,5.99,5.34,5.98,5.31-1.3,9.25-11.9,6.43-24.45,6.6-37.26,3.84-5.39-1.16-5.46-1.01-4.85,4.59.99,8.92.74,17.9.8,26.87.01,2.03-1.1,3.01-2.78,3.63-9.81,3.63-19.37,7.84-28.39,13.16-3.56,2.1-12.38,5.18-16.23,8.32,1.43-17.58,2.75-34.49,4.23-51.38.27-3.03-.51-4.23-3.69-4.14-9.47.26-18.95.49-28.42.36-4.99-.07-9.97-.91-15.01-2.09,9.05-2.44,16.23-8.14,23.99-12.46,20.22-11.26,35.21-27.26,43.78-49.43,5.39-13.95,7.52-28.04,5.45-42.41-2.56-17.77-9.78-33.93-21.29-47.99-8.95-10.93-20.3-19.37-30.35-29.16-3.99-3.88-5.19-7.58-4.67-12.67,1.05-10.28,1.07-20.56-.42-30.81-2-13.67-8.63-24.88-18.36-34.4-1.5-1.47-2.57-2.55-.57-4.41,2.91-2.71-4.12-105.45-4.41-109.67,5.98,4.78,9.79,10.24,13.47,15.73,6.26,9.35,11.59,19.42,18.59,28.16,9,11.23,16.94,23.24,26.44,34.11,8.83,10.11,18.15,19.76,27.11,29.73,6.25,6.97,13.31,13.29,19.84,20.06.55.57,1.3,1.1.62,3.1h-35.46c1,3.76,2,6.38,3.57,8.72,9.31,13.87,17.98,28.17,28.44,41.27,8.28,10.37,17.04,20.27,26.32,29.71,2.4,2.44,5.6,4.08,8.33,6.21.82.64,2.25,1.42,1.54,2.73-.38.69-1.63,1.13-2.55,1.27-9.21,1.4-18.41,1.76-27.61-.31-3.36-.76-6.86-.92-11.45-1.5Z"/>
    <path class="cls-1" d="M242.87,184.21c-3.81,10.82-4.55,22.04-4.38,33.36.04,2.47.28,4.96.64,7.41.79,5.36-2.15,8.81-5.98,11.67-11.69,8.74-22.94,18.14-31.58,29.87-6.32,8.58-11.13,18.27-14.25,28.77-3.35,11.28-5.01,22.6-4.2,34.28,1.21,17.5,7.61,32.79,18.19,46.91,12.38,16.53,28.86,27.03,46.96,35.73,2.01.97,4.45,1.4,5.84,3.52-1.8,1.84-4.03,1.52-6.15,1.53-10.48.01-20.98.24-31.45-.11-4.57-.15-4.85,1.44-4.5,5.38,1.21,14.03,4.45,27.82,4.54,41.98.03,4.14-.94,5.18-4.96,4.22-10.24-2.45-19.42-7.3-28.66-12.09-4.55-2.36-9.27-4.27-13.17-7.87-1.9-1.75-2.37-3.37-2.04-5.6,1.14-7.69,2.23-15.4,3.46-23.08.43-2.7.2-3.76-3.19-3.55-10.91.69-21.85,1.61-32.69-1.05-13.14-3.23-14.73-7.9-6-18.18,5.39-6.34,9.81-13.3,14.22-20.35,5.32-8.51,8.41-17.63,11.13-28.55-3.5,3.25-6.15,5.59-8.15,8.02-9.59,11.68-32.96,6.16-40.91-.3-1.8-1.46-.83-2.45.31-3.6,19.8-20.07,36.03-42.78,49.19-67.65,3.86-7.3,8.31-14.35,10.84-22.33.45-1.41,1.03-2.68.7-3.96-13.13,8.51-27.86,3.73-41.82,5.64,3.42-4.07,7.58-7.15,10.9-11.14,6.02-7.25,12.87-13.81,18.8-21.13,7.27-8.98,14.38-18.09,20.63-27.86,5.7-8.91,11.73-17.6,16.55-27.08,1.75-3.45,1.63-4.6-2.56-4.49-7.15.19-14.31.03-21.47-.03-1.66-.01-3.31-.18-4.97-.3-1.57-.11-3.19-.77-3.84-2-.94-1.77,1.24-2.44,2.14-3.36,8.21-8.42,16.69-16.58,24.8-25.09,13.58-14.25,26-29.5,37.72-45.31,11.04-14.91,21.24-30.38,30.83-46.26,1.79-2.96,4.24-7.22,7.38-6.49,3.24.75,1.32,5.48,1.41,8.41.43,13.62-2.13,27.05-3.07,40.59-.93,13.5-5.04,26.72-3.63,40.45.37,3.6.63,7.24,1.32,10.79.84,4.36,1.05,7.94-1.5,12.43-3.07,5.4-12.83,26.26-13.38,27.81Z"/>
    <path class="cls-5" d="M422.13,341.1c2.78-.15,3.73-2.12,5.92-1.59-.68,6.46-2.93,11.71-9.65,14.02-10.99,3.78-21.42,8.94-32.28,13.1-10.86,4.16-13.97,13.45-13.12,27.36.63,10.39,3.06,20.64,2.46,31.15-.22,3.82-.4,7.7-1.73,11.22-2.83,7.49-3.35,15.52-2.6,23,.64,6.49,5.31,12.45,11.14,16.43,5.34,3.65,11.07,6.73,16.39,10.41,5.99,4.14,11.62,8.8,17.59,12.98,2.77,1.94,1.88,2.85-.41,3.99-5.47,2.73-11.07,5.46-16.15,8.66-8.73,5.5-17.17,11.6-24.37,19.26-6.8,7.24-12.41,15.28-17.67,23.99-14.57-27.15-38.24-43.15-65.29-55.53,7.72-6.8,13.63-14.25,21.66-19.33,2.24-1.41,4.36-3.2,6.8-4.06,4.52-1.58,6.87-4,6.16-9.15-.98-7.11.95-13.78,3.7-20.32,9.99-23.82,10.82-48.7,7.87-73.87-.71-6.06-3.12-11.79-6.47-17.04-8.57-13.4-15.87-27.53-23.4-41.52-3.34-6.2-3.64-13.34-6.27-19.76-4.62-11.27-7.82-22.82-8.32-35.14-.45-11.13,1.65-21.38,7.63-30.85,2.44-3.87,3.8-8.48,8.77-10.28,1.81-.66,3.57-1.48,5.1-.17,1.57,1.35.35,3.08-.22,4.59-6.84,17.96-5,35.77,1.2,53.4,1.95,5.55,2.58,11.58,5.89,16.63,3.74,5.71,6.64,12.09,13.87,14.7,5.82,2.1,7.96.83,8.62-5.16,4.55-41.41,3.17-82.98,3.44-124.51.1-15.81,2.64-31.35,5.99-46.77.83-3.82,3.21-6.01,6.82-6.15,3.49-.13,6.43,1.53,7.57,5.25.53,1.73,1.19,3.46,1.48,5.24,5.28,32.51,7.49,65.2,7.81,98.17.29,30.58.74,61.16.7,91.75,0,5.16,2.12,8.03,7.19,9.12,8.24,1.76,16.38.78,23.96-2.09,6.1-2.31,8.28-8.29,8.52-14.64.34-9.18,3.71-16.68,11.39-22.07,3.75-2.64,8.2-2.24,12.35-3.06,2.14-.42,2.05.59,1.85,2.89-1,11.69-9.94,19.22-14.44,29.02-2.45,5.33-4.75,10.72-7.41,16.73Z"/>
  </g>
</svg>